<svg xmlns="http://www.w3.org/2000/svg" xmlns:xlink="http://www.w3.org/1999/xlink" width="500" zoomAndPan="magnify" viewBox="0 0 375 149.999998" height="200" preserveAspectRatio="xMidYMid meet" version="1.0"><defs><g/><clipPath id="6442646f60"><path d="M 102.011719 10.230469 L 137.773438 10.230469 L 137.773438 45.992188 L 102.011719 45.992188 Z M 102.011719 10.230469 " clip-rule="nonzero"/></clipPath><clipPath id="9691f71fd4"><rect x="0" width="369" y="0" height="56"/></clipPath></defs><g transform="matrix(1, 0, 0, 1, 3, 42)"><g clip-path="url(#9691f71fd4)"><g fill="#000000" fill-opacity="1"><g transform="translate(0.38656, 45.085777)"><g><path d="M 4.265625 0 L 4.265625 -34.890625 L 15.46875 -34.890625 L 15.46875 0 Z M 4.265625 0 "/></g></g></g><g fill="#000000" fill-opacity="1"><g transform="translate(20.106363, 45.085777)"><g><path d="M 33.71875 0 L 33.71875 -12.578125 C 33.71875 -14.128906 33.773438 -15.722656 33.890625 -17.359375 C 34.015625 -19.003906 34.144531 -20.382812 34.28125 -21.5 C 34.414062 -22.613281 34.5 -23.320312 34.53125 -23.625 L 34.328125 -23.625 L 27.890625 0 L 19.109375 0 L 12.625 -23.578125 L 12.421875 -23.578125 C 12.453125 -23.273438 12.539062 -22.570312 12.6875 -21.46875 C 12.84375 -20.375 12.988281 -19.003906 13.125 -17.359375 C 13.257812 -15.722656 13.328125 -14.128906 13.328125 -12.578125 L 13.328125 0 L 3.046875 0 L 3.046875 -34.890625 L 18.859375 -34.890625 L 24.140625 -14.75 L 24.34375 -14.75 L 29.5625 -34.890625 L 44.828125 -34.890625 L 44.828125 0 Z M 33.71875 0 "/></g></g></g><g fill="#000000" fill-opacity="1"><g transform="translate(67.961105, 45.085777)"><g><path d="M 23.328125 -34.890625 C 25.484375 -34.890625 27.40625 -34.390625 29.09375 -33.390625 C 30.789062 -32.390625 32.113281 -31.019531 33.0625 -29.28125 C 34.007812 -27.539062 34.484375 -25.585938 34.484375 -23.421875 L 34.484375 -22.765625 C 34.484375 -20.597656 34.007812 -18.632812 33.0625 -16.875 C 32.113281 -15.125 30.789062 -13.75 29.09375 -12.75 C 27.40625 -11.75 25.484375 -11.25 23.328125 -11.25 L 14.953125 -11.25 L 14.953125 0 L 3.75 0 L 3.75 -34.890625 Z M 14.953125 -19.421875 L 19.578125 -19.421875 C 20.753906 -19.421875 21.640625 -19.722656 22.234375 -20.328125 C 22.828125 -20.941406 23.125 -21.769531 23.125 -22.8125 L 23.125 -23.21875 C 23.125 -24.300781 22.828125 -25.140625 22.234375 -25.734375 C 21.640625 -26.328125 20.753906 -26.625 19.578125 -26.625 L 14.953125 -26.625 Z M 14.953125 -19.421875 "/></g></g></g><g fill="#000000" fill-opacity="1"><g transform="translate(104.567631, 45.085777)"><g/></g></g><g fill="#000000" fill-opacity="1"><g transform="translate(121.448592, 45.085777)"><g/></g></g><g fill="#000000" fill-opacity="1"><g transform="translate(138.341686, 45.085777)"><g><path d="M 36.859375 -24.1875 C 36.859375 -22.050781 36.28125 -20.117188 35.125 -18.390625 C 33.976562 -16.671875 32.3125 -15.410156 30.125 -14.609375 L 37.875 0 L 25.296875 0 L 19.109375 -12.71875 L 14.953125 -12.71875 L 14.953125 0 L 3.75 0 L 3.75 -34.890625 L 25.09375 -34.890625 C 27.59375 -34.890625 29.726562 -34.40625 31.5 -33.4375 C 33.28125 -32.476562 34.617188 -31.175781 35.515625 -29.53125 C 36.410156 -27.894531 36.859375 -26.113281 36.859375 -24.1875 Z M 25.453125 -23.734375 C 25.453125 -24.640625 25.144531 -25.394531 24.53125 -26 C 23.925781 -26.613281 23.1875 -26.921875 22.3125 -26.921875 L 14.953125 -26.921875 L 14.953125 -20.484375 L 22.3125 -20.484375 C 23.1875 -20.484375 23.925781 -20.796875 24.53125 -21.421875 C 25.144531 -22.046875 25.453125 -22.816406 25.453125 -23.734375 Z M 25.453125 -23.734375 "/></g></g></g><g fill="#000000" fill-opacity="1"><g transform="translate(177.324993, 45.085777)"><g><path d="M 23.828125 -25.953125 L 23.828125 0 L 12.625 0 L 12.625 -25.953125 L 1.171875 -25.953125 L 1.171875 -34.890625 L 35.234375 -34.890625 L 35.234375 -25.953125 Z M 23.828125 -25.953125 "/></g></g></g><g fill="#000000" fill-opacity="1"><g transform="translate(213.925756, 45.085777)"><g><path d="M 17.546875 -35.484375 C 20.285156 -35.484375 22.660156 -35.050781 24.671875 -34.1875 C 26.679688 -33.332031 28.234375 -32.109375 29.328125 -30.515625 C 30.429688 -28.929688 30.984375 -27.09375 30.984375 -25 C 30.984375 -23.039062 30.488281 -21.265625 29.5 -19.671875 C 28.519531 -18.085938 27.285156 -16.6875 25.796875 -15.46875 C 24.316406 -14.25 22.273438 -12.757812 19.671875 -11 C 18.222656 -10.050781 17.039062 -9.238281 16.125 -8.5625 L 31.390625 -8.5625 L 31.390625 0 L 2.484375 0 L 2.484375 -2.4375 C 2.484375 -4.226562 2.894531 -5.820312 3.71875 -7.21875 C 4.550781 -8.625 5.765625 -10.035156 7.359375 -11.453125 C 8.972656 -12.878906 11.300781 -14.804688 14.34375 -17.234375 C 16.78125 -19.160156 18.488281 -20.628906 19.46875 -21.640625 C 20.445312 -22.660156 20.9375 -23.660156 20.9375 -24.640625 C 20.9375 -25.691406 20.570312 -26.570312 19.84375 -27.28125 C 19.125 -27.988281 18.035156 -28.34375 16.578125 -28.34375 C 15.054688 -28.34375 13.851562 -27.898438 12.96875 -27.015625 C 12.09375 -26.140625 11.65625 -24.992188 11.65625 -23.578125 L 11.65625 -22.5625 L 2.640625 -22.5625 C 2.597656 -22.832031 2.578125 -23.203125 2.578125 -23.671875 C 2.578125 -27.328125 3.851562 -30.207031 6.40625 -32.3125 C 8.957031 -34.425781 12.671875 -35.484375 17.546875 -35.484375 Z M 17.546875 -35.484375 "/></g></g></g><g fill="#000000" fill-opacity="1"><g transform="translate(247.738377, 45.085777)"><g><path d="M 25.40625 0 L 14.203125 0 L 14.203125 -13.53125 L 0.359375 -34.890625 L 13.234375 -34.890625 L 19.921875 -23.265625 L 20.125 -23.265625 L 26.828125 -34.890625 L 39.046875 -34.890625 L 25.40625 -13.53125 Z M 25.40625 0 "/></g></g></g><g fill="#000000" fill-opacity="1"><g transform="translate(284.136031, 45.085777)"><g><path d="M 21.09375 -35.484375 C 27.113281 -35.484375 31.757812 -33.945312 35.03125 -30.875 C 38.3125 -27.800781 39.953125 -23.320312 39.953125 -17.4375 C 39.953125 -11.5625 38.3125 -7.082031 35.03125 -4 C 31.757812 -0.925781 27.113281 0.609375 21.09375 0.609375 C 15.070312 0.609375 10.429688 -0.914062 7.171875 -3.96875 C 3.910156 -7.03125 2.28125 -11.519531 2.28125 -17.4375 C 2.28125 -23.351562 3.910156 -27.835938 7.171875 -30.890625 C 10.429688 -33.953125 15.070312 -35.484375 21.09375 -35.484375 Z M 21.09375 -27.125 C 18.695312 -27.125 16.867188 -26.394531 15.609375 -24.9375 C 14.359375 -23.488281 13.734375 -21.53125 13.734375 -19.0625 L 13.734375 -15.8125 C 13.734375 -13.351562 14.359375 -11.394531 15.609375 -9.9375 C 16.867188 -8.476562 18.695312 -7.75 21.09375 -7.75 C 23.488281 -7.75 25.320312 -8.476562 26.59375 -9.9375 C 27.863281 -11.394531 28.5 -13.351562 28.5 -15.8125 L 28.5 -19.0625 C 28.5 -21.53125 27.863281 -23.488281 26.59375 -24.9375 C 25.320312 -26.394531 23.488281 -27.125 21.09375 -27.125 Z M 21.09375 -27.125 "/></g></g></g><g fill="#000000" fill-opacity="1"><g transform="translate(326.363791, 45.085777)"><g><path d="M 38.484375 -14.046875 C 38.484375 -9.273438 36.976562 -5.640625 33.96875 -3.140625 C 30.957031 -0.640625 26.679688 0.609375 21.140625 0.609375 C 15.597656 0.609375 11.3125 -0.640625 8.28125 -3.140625 C 5.257812 -5.640625 3.75 -9.273438 3.75 -14.046875 L 3.75 -34.890625 L 14.953125 -34.890625 L 14.953125 -14.203125 C 14.953125 -12.234375 15.472656 -10.664062 16.515625 -9.5 C 17.566406 -8.332031 19.09375 -7.75 21.09375 -7.75 C 23.082031 -7.75 24.609375 -8.34375 25.671875 -9.53125 C 26.742188 -10.71875 27.28125 -12.273438 27.28125 -14.203125 L 27.28125 -34.890625 L 38.484375 -34.890625 Z M 38.484375 -14.046875 "/></g></g></g><g clip-path="url(#6442646f60)"><path fill="#100f0d" d="M 119.894531 44.652344 C 115.496094 44.652344 111.496094 42.933594 108.535156 40.132812 C 109.089844 39.996094 109.875 39.257812 110.027344 38.847656 C 110.113281 38.601562 110.089844 38.269531 110.234375 38.050781 C 110.296875 37.949219 110.507812 37.925781 110.59375 37.832031 C 111.457031 36.898438 110.835938 35.578125 110.332031 34.589844 C 110.125 34.179688 109.925781 33.542969 109.617188 33.1875 C 109.316406 32.847656 108.882812 32.90625 108.5625 32.660156 C 108.15625 32.339844 108.078125 31.605469 107.855469 31.167969 C 107.542969 30.550781 107.019531 30.042969 106.742188 29.429688 C 106.46875 28.835938 106.570312 27.152344 105.871094 26.929688 L 105.644531 26.8125 C 105.179688 26.703125 104.179688 27.480469 103.378906 28.277344 L 103.378906 28.113281 L 103.742188 24.910156 C 105.351562 24.488281 107.199219 23.292969 107.613281 22.582031 C 108.007812 21.902344 109.144531 21.296875 109.949219 21.296875 C 110.273438 21.300781 110.707031 21.222656 110.992188 21.363281 C 111.289062 21.511719 111.078125 21.90625 111.648438 21.882812 C 112.335938 21.851562 112.074219 20.746094 112.242188 20.214844 C 112.402344 19.691406 112.929688 18.894531 113.253906 18.457031 C 113.605469 17.976562 114.328125 17.675781 114.882812 17.546875 C 114.894531 17.765625 114.964844 18.121094 114.851562 18.316406 C 114.804688 18.398438 114.558594 18.457031 114.546875 18.480469 C 114.398438 18.8125 114.394531 19.398438 115.0625 19.15625 C 115.558594 18.972656 115.585938 18.378906 116.214844 18.238281 C 116.449219 18.183594 116.820312 18.140625 117.054688 18.191406 C 117.296875 18.246094 117.375 18.496094 117.6875 18.4375 C 118.6875 18.246094 118.328125 16.433594 119.402344 16.082031 C 120.011719 15.878906 120.566406 16.320312 121.148438 16.304688 C 121.832031 16.28125 122.136719 15.695312 122.816406 15.625 C 124.203125 15.476562 125.011719 15.789062 124.816406 17.304688 C 124.773438 17.644531 124.675781 18.148438 124.242188 18.144531 C 123.9375 18.144531 123.554688 17.640625 123.15625 17.578125 C 122.335938 17.445312 121.023438 17.898438 120.503906 18.570312 C 120.324219 18.804688 120.277344 18.914062 120.289062 19.230469 C 120.304688 19.640625 120.472656 19.582031 120.578125 19.878906 C 120.820312 20.570312 120.125 20.675781 119.625 21.183594 C 119.421875 21.394531 119.34375 21.640625 119.015625 21.773438 C 118.710938 21.898438 118.195312 21.742188 117.945312 21.945312 C 117.667969 22.164062 117.867188 22.453125 117.835938 22.675781 C 117.769531 23.140625 117.789062 23.039062 117.417969 23.3125 C 117.070312 23.5625 116.402344 24.289062 116.738281 24.894531 C 116.992188 25.355469 118.207031 25.753906 118.597656 25.433594 C 118.835938 25.242188 118.894531 24.890625 119.113281 24.683594 C 119.433594 24.378906 119.882812 24.335938 120.289062 24.230469 C 120.6875 24.128906 121.214844 23.851562 121.644531 24 C 122.042969 24.136719 122.085938 24.542969 122.472656 24.761719 C 123.265625 25.207031 124.222656 24.367188 125.117188 24.789062 C 125.867188 25.144531 126.425781 25.925781 125.304688 26.15625 C 124.101562 26.40625 123.253906 26.109375 122.140625 25.675781 C 121.53125 25.441406 120.429688 25.335938 119.773438 25.515625 C 119.433594 25.609375 119.128906 25.992188 118.804688 26.109375 C 118.269531 26.300781 117.726562 26.175781 117.1875 26.425781 C 115.777344 27.089844 114.570312 28.644531 114.429688 30.214844 C 114.332031 31.273438 114.371094 32.085938 115.082031 32.851562 C 115.53125 33.332031 116.132812 33.539062 116.765625 33.605469 C 117.835938 33.714844 119.035156 33.554688 120.074219 33.820312 C 121.074219 34.074219 120.355469 35.15625 120.980469 35.371094 L 121.496094 36.003906 C 121.464844 36.433594 121.882812 36.824219 121.972656 37.25 C 122.097656 37.855469 121.75 38.125 121.667969 38.683594 C 121.460938 40.046875 122.332031 40.988281 123.09375 42 C 123.882812 43.042969 126.023438 42.078125 126.378906 40.980469 C 126.546875 40.457031 126.484375 40.125 126.976562 39.757812 C 127.410156 39.433594 127.902344 39.367188 128.296875 38.949219 C 129.546875 37.632812 128.550781 35.714844 129.320312 34.21875 C 129.71875 33.449219 130.726562 33.066406 131.167969 32.386719 C 131.554688 31.796875 131.351562 30.976562 131.285156 30.34375 C 131.222656 29.691406 131.382812 29.105469 131.660156 28.507812 C 131.792969 28.222656 132 28.105469 132.011719 27.738281 C 132.019531 27.425781 131.765625 27.203125 131.757812 26.9375 C 131.742188 26.441406 132.09375 26.269531 132.628906 26.375 C 133.425781 26.535156 133.699219 27.683594 134.066406 28.320312 C 134.328125 28.777344 135.074219 30.59375 135.222656 29.171875 C 135.335938 28.09375 135.109375 26.996094 135.109375 25.914062 C 135.203125 25.902344 135.6875 25.839844 136.269531 25.769531 C 136.378906 26.535156 136.4375 27.316406 136.4375 28.113281 C 136.4375 37.246094 129.03125 44.652344 119.894531 44.652344 Z M 119.894531 10.226562 C 110.019531 10.226562 102.011719 18.234375 102.011719 28.113281 C 102.011719 37.988281 110.019531 45.996094 119.894531 45.996094 C 129.773438 45.996094 137.777344 37.988281 137.777344 28.113281 C 137.777344 18.234375 129.773438 10.226562 119.894531 10.226562 " fill-opacity="1" fill-rule="nonzero"/></g></g></g></svg>